<svg width="16" height="16" viewBox="0 0 16 16" fill="none" xmlns="http://www.w3.org/2000/svg">
<path d="M15.2358 10.0174L13.5629 10.8077C13.3313 10.9169 13.1935 11.1615 13.2175 11.4202L13.3952 13.2799C13.4331 13.6861 13.0758 14.0156 12.6805 13.9388L10.8678 13.5831C10.6163 13.5345 10.3628 13.6498 10.233 13.8741L9.29875 15.4852C9.09513 15.8369 8.61202 15.8915 8.33853 15.5923L7.08086 14.2259C6.90718 14.0358 6.63369 13.9792 6.39813 14.0823L4.70726 14.8302C4.33794 14.994 3.91672 14.7514 3.86682 14.3451L3.64323 12.4915C3.61129 12.2348 3.42364 12.0246 3.1741 11.97L1.37144 11.5678C0.978167 11.4808 0.778537 11.0321 0.974174 10.6763L1.86852 9.04105C1.99229 8.81466 1.96234 8.53369 1.79266 8.33964L0.568925 6.94085C0.301421 6.63563 0.39924 6.15454 0.764563 5.98272L2.43746 5.19237C2.66903 5.08322 2.80678 4.83863 2.78282 4.5799L2.60515 2.72024C2.56722 2.31395 2.92456 1.98446 3.31983 2.06128L5.13247 2.41704C5.384 2.46555 5.63754 2.35033 5.76729 2.12596L6.70156 0.514931C6.90519 0.163213 7.38829 0.108636 7.66179 0.407798L8.91945 1.77424C9.09313 1.96425 9.36663 2.02085 9.60219 1.91776L11.2931 1.16985C11.6624 1.00612 12.0836 1.24869 12.1335 1.65498L12.3571 3.50857C12.389 3.76529 12.5767 3.97551 12.8262 4.03009L14.6289 4.43234C15.0221 4.51926 15.2218 4.968 15.0261 5.32376L14.1318 6.95904C14.008 7.18544 14.038 7.46641 14.2077 7.66046L15.4314 9.05924C15.6989 9.36447 15.6011 9.84555 15.2358 10.0174Z" fill="#FEB087"/>
</svg>
